<svg xmlns="http://www.w3.org/2000/svg" width="1600" height="900" viewBox="0 0 1600 900">
  <defs>
    <linearGradient id="g2" x1="0%" y1="0%" x2="100%" y2="0%">
      <stop offset="0%" stop-color="#14324f"/>
      <stop offset="50%" stop-color="#1b5676"/>
      <stop offset="100%" stop-color="#0f273d"/>
    </linearGradient>
    <linearGradient id="wave2" x1="0%" y1="0%" x2="0%" y2="100%">
      <stop offset="0%" stop-color="#8ac6f3" stop-opacity="0.55"/>
      <stop offset="100%" stop-color="#8ac6f3" stop-opacity="0"/>
    </linearGradient>
    <style>
      .float-circle { animation: floatCircle 10s ease-in-out infinite; }
      .float-wave { animation: floatWave 7s ease-in-out infinite; }
      @keyframes floatCircle {
        0%, 100% { transform: translateY(0px) translateX(0px); }
        25% { transform: translateY(-10px) translateX(-3px); }
        50% { transform: translateY(-5px) translateX(5px); }
        75% { transform: translateY(-8px) translateX(-4px); }
      }
      @keyframes floatWave {
        0%, 100% { transform: translateY(0px) translateX(0px); }
        33% { transform: translateY(-5px) translateX(-2px); }
        66% { transform: translateY(-8px) translateX(4px); }
      }
    </style>
  </defs>
  <rect width="1600" height="900" fill="url(#g2)"/>
  <path class="float-wave" d="M0 260 C320 200 520 250 840 210 C1160 170 1360 110 1600 150 L1600 0 L0 0 Z" fill="#ffffff0f"/>
  <path class="float-wave" d="M0 540 C280 500 520 440 860 470 C1200 500 1380 470 1600 420 L1600 900 L0 900 Z" fill="url(#wave2)"/>
  <path class="float-wave" d="M0 660 C340 640 620 700 980 640 C1280 590 1490 560 1600 560 L1600 900 L0 900 Z" fill="#ffffff12"/>
  <circle class="float-circle" cx="260" cy="140" r="180" fill="#7cc2f0" opacity="0.14"/>
  <circle class="float-circle" cx="1400" cy="280" r="220" fill="#7cc2f0" opacity="0.12"/>
</svg>
